<?xml version="1.0" encoding="utf-8"?>
<!-- Generator: Adobe Illustrator 18.1.1, SVG Export Plug-In . SVG Version: 6.00 Build 0)  -->
<!DOCTYPE svg PUBLIC "-//W3C//DTD SVG 1.1//EN" "http://www.w3.org/Graphics/SVG/1.1/DTD/svg11.dtd">
<svg version="1.1" xmlns="http://www.w3.org/2000/svg" xmlns:xlink="http://www.w3.org/1999/xlink" x="0px" y="0px"
	 viewBox="0 0 100 100" enable-background="new 0 0 100 100" xml:space="preserve">
<g id="Guides">
</g>
<g id="Artwork">
	<path d="M19,83h-6c-4.4,0-8-3.6-8-8s3.6-8,8-8s8,3.6,8,8c0,1.1-0.9,2-2,2s-2-0.9-2-2c0-2.2-1.8-4-4-4s-4,1.8-4,4s1.8,4,4,4h6
		c1.1,0,2,0.9,2,2S20.1,83,19,83z M50,91H28c-2.2,0-4-1.8-4-4s1.8-4,4-4s4,1.8,4,4c0,1.1,0.9,2,2,2s2-0.9,2-2c0-4.4-3.6-8-8-8
		s-8,3.6-8,8s3.6,8,8,8h22c1.1,0,2-0.9,2-2S51.1,91,50,91z M60,83c1.1,0,2-0.9,2-2s-0.9-2-2-2H38c-1.1,0-2,0.9-2,2s0.9,2,2,2H60z
		 M70,85H48c-1.1,0-2,0.9-2,2s0.9,2,2,2h22c1.1,0,2-0.9,2-2S71.1,85,70,85z M91,55c-0.4,0.6-1,1-1.7,1c-0.3,0-0.7-0.1-1-0.3
		l-1.9-1.1c0,0.5,0.1,0.9,0.1,1.4c0,7.7-6.3,14-14,14H27.6c-7.7,0-14-6.3-14-14s6.3-14,14-14c1.3,0,2.6,0.2,3.9,0.5
		c2.7-6.7,8.9-11.5,16.1-12.4C51.1,23.9,57.7,20,65,20c11,0,20,9,20,20c0,2.6-0.5,5.1-1.5,7.5c0.6,0.8,1.1,1.7,1.6,2.6
		c0.5-0.2,1.2-0.2,1.7,0.1l3.5,2C91.2,52.8,91.5,54,91,55z M52.4,30.2c7.4,0.9,13.5,5.8,16.2,12.4c1.2-0.4,2.5-0.6,3.9-0.6
		c2.9,0,5.7,0.9,7.9,2.5C80.8,43,81,41.5,81,40c0-8.8-7.2-16-16-16C60,24,55.4,26.3,52.4,30.2z M82.4,56c0-5.5-4.5-10-10-10
		c-0.9,0-1.9,0.1-2.7,0.4c0.2,1.2,0.3,2.4,0.3,3.6c0,1.1-0.9,2-2,2s-2-0.9-2-2c0-8.8-7.2-16-16-16c-6.6,0-12.5,4.1-14.9,10.2
		c0.9,0.5,1.7,1.2,2.4,1.9c0.8,0.8,0.8,2,0,2.8c-0.8,0.8-2,0.8-2.8,0C32.8,47,30.3,46,27.6,46c-5.5,0-10,4.5-10,10s4.5,10,10,10
		h44.8C77.9,66,82.4,61.5,82.4,56z M93,38h-4c-1.1,0-2,0.9-2,2s0.9,2,2,2h4c1.1,0,2-0.9,2-2S94.1,38,93,38z M85.8,30
		c0.3,0,0.7-0.1,1-0.3l3.5-2c1-0.6,1.3-1.8,0.7-2.7c-0.6-1-1.8-1.3-2.7-0.7l-3.5,2c-1,0.6-1.3,1.8-0.7,2.7
		C84.4,29.6,85.1,30,85.8,30z M76,20.9c0.3,0.2,0.7,0.3,1,0.3c0.7,0,1.4-0.4,1.7-1l2-3.5c0.6-1,0.2-2.2-0.7-2.7
		c-1-0.6-2.2-0.2-2.7,0.7l-2,3.5C74.7,19.2,75,20.4,76,20.9z M65,18c1.1,0,2-0.9,2-2v-4c0-1.1-0.9-2-2-2s-2,0.9-2,2v4
		C63,17.1,63.9,18,65,18z M51.3,20.2c0.4,0.6,1,1,1.7,1c0.3,0,0.7-0.1,1-0.3c1-0.6,1.3-1.8,0.7-2.7l-2-3.5c-0.6-1-1.8-1.3-2.7-0.7
		c-1,0.6-1.3,1.8-0.7,2.7L51.3,20.2z M39.8,27.7l3.5,2c0.3,0.2,0.7,0.3,1,0.3c0.7,0,1.4-0.4,1.7-1c0.6-1,0.2-2.2-0.7-2.7l-3.5-2
		c-1-0.6-2.2-0.2-2.7,0.7C38.5,26,38.8,27.2,39.8,27.7z"/>
</g>
<g id="Layer_3">
</g>
</svg>
